<svg xmlns="http://www.w3.org/2000/svg" viewBox="0 0 256 256" width="256" height="256" role="img" aria-label="Mesedi mark">
  <path d="M 40 50 L 216 50 L 216 140 Q 216 200, 128 230 Q 40 200, 40 140 Z"
        fill="none"
        stroke="#FF8C42"
        stroke-width="7"
        stroke-linejoin="round"/>
  <line x1="128" y1="78" x2="128" y2="202"
        stroke="#FF8C42"
        stroke-width="5"
        stroke-linecap="round"/>
  <path d="M 128 66 L 140 84 L 128 102 L 116 84 Z"
        fill="#F2D478"/>
  <line x1="116" y1="142" x2="140" y2="142"
        stroke="#FF8C42"
        stroke-width="3"
        stroke-linecap="round"/>
  <g stroke="#FF8C42" stroke-width="1.8" fill="none" opacity="0.55">
    <path d="M 60 92 L 82 92 L 82 108 L 100 108"/>
    <path d="M 60 132 L 80 132"/>
    <path d="M 60 175 L 76 175 L 76 192"/>
    <circle cx="82" cy="92" r="2.5" fill="#FF8C42"/>
    <circle cx="100" cy="108" r="2.5" fill="#FF8C42"/>
    <circle cx="80" cy="132" r="2.5" fill="#FF8C42"/>
    <circle cx="76" cy="192" r="2.5" fill="#FF8C42"/>
  </g>
  <g stroke="#FF8C42" stroke-width="1.8" fill="none" opacity="0.55">
    <path d="M 196 92 L 174 92 L 174 108 L 156 108"/>
    <path d="M 196 132 L 176 132"/>
    <path d="M 196 175 L 180 175 L 180 192"/>
    <circle cx="174" cy="92" r="2.5" fill="#FF8C42"/>
    <circle cx="156" cy="108" r="2.5" fill="#FF8C42"/>
    <circle cx="176" cy="132" r="2.5" fill="#FF8C42"/>
    <circle cx="180" cy="192" r="2.5" fill="#FF8C42"/>
  </g>
</svg>
